:SAMPLES-PER-SECOND 30
:FULLY-SPECIFIED
:DEGREES
1237
root  20.5829 39.4945 21.4398 -18.3385 -81.6519 16.16
RightUpLeg  9.43173 -9.3395 -1.01591
RightLeg  14.9022 5.15499 4.7771
RightFoot  -16.6442 -0.433714 -6.94613
RightToes  0.00048216 0.542163 -0.142577
Spine  7.86883 1.78027 8.12461
Spine1  7.05708 3.27501 -3.49457
HEad  -10.0362 -5.68924 -0.532034
LeftShoulder1  8.06296 -12.2313 -44.6353
LeftArm  -7.09137 34.0599 -30.6243
LeftForeArm  33.4785 -13.9732 -4.8091
LeftHand  -0.25398 0.0180481 5.50724
RightShoulder  4.72901 8.12131 34.7218
RightArm  9.34498 -11.0336 37.7578
RightForeArm  118.89 79.1425 114.613
RightHand  -2.13054 6.17757 -21.5373
LeftUpLeg  -21.9808 7.217 0.319982
LeftLeg  14.613 2.71303 0.0806926
LeftFoot  -0.918678 -0.0230297 0.311544
LeftToes  1.06246e-005 4.65856e-005 -8.18502e-006
1238
root  19.0406 39.3321 21.9459 -25.152 -82.6433 22.9467
RightUpLeg  12.6014 -9.90356 -3.13239
RightLeg  14.1922 7.87105 4.96499
RightFoot  -17.7398 -0.429723 -5.55426
RightToes  0.00048216 0.542163 -0.142577
Spine  8.17236 1.91728 7.31365
Spine1  7.50516 3.68318 -4.51345
HEad  -10.6918 -5.13068 -0.101893
LeftShoulder1  7.97483 -12.1709 -44.3023
LeftArm  -7.91996 35.5389 -31.0297
LeftForeArm  33.7434 -13.8856 -4.6549
LeftHand  -0.25398 0.0180481 5.50724
RightShoulder  4.85186 8.32475 35.0562
RightArm  11.2697 -9.50829 36.8819
RightForeArm  119.523 79.1634 114.696
RightHand  -2.13802 6.23896 -21.4992
LeftUpLeg  -20.2199 2.99274 1.88716
LeftLeg  1.70904 11.2072 -3.61157
LeftFoot  -1.89066 0.23953 -2.82636
LeftToes  1.06246e-005 4.65856e-005 -8.18502e-006
1239
root  17.3873 39.0475 22.524 -29.7356 -83.281 27.1559
RightUpLeg  15.6212 -10.9143 -5.28204
RightLeg  15.0274 10.7134 5.24795
RightFoot  -18.5653 -0.380327 -4.02212
RightToes  0.00048216 0.542163 -0.142577
Spine  8.48467 1.88693 7.25932
Spine1  7.94243 3.99913 -5.5558
HEad  -11.2825 -4.87826 0.655996
LeftShoulder1  7.84769 -12.0287 -43.9794
LeftArm  -8.87456 36.3607 -31.2162
LeftForeArm  33.7818 -13.8672 -4.45282
LeftHand  -0.25398 0.0180481 5.50724
RightShoulder  4.92224 8.40512 35.3649
RightArm  12.7554 -8.74831 36.1454
RightForeArm  118.995 79.3349 113.19
RightHand  -2.10255 6.1606 -21.2899
LeftUpLeg  -19.0988 2.13648 1.44308
LeftLeg  -5.19325 18.9521 -6.87597
LeftFoot  -4.06185 0.292113 -4.03661
LeftToes  1.06246e-005 4.65856e-005 -8.18502e-006
1240
root  15.6166 38.7652 23.1216 -32.2923 -83.5555 29.4715
RightUpLeg  18.2932 -11.7601 -7.22613
RightLeg  16.5089 12.8191 5.34325
RightFoot  -18.4018 -0.279356 -2.53248
RightToes  0.00048216 0.542163 -0.142577
Spine  8.36247 1.90753 7.17318
Spine1  8.56504 4.34648 -6.32128
HEad  -11.7451 -4.88904 1.5896
LeftShoulder1  7.7279 -11.8841 -43.7004
LeftArm  -9.85491 36.5716 -31.2188
LeftForeArm  33.4698 -13.684 -4.28142
LeftHand  -0.25398 0.0180481 5.50724
RightShoulder  4.96681 8.45337 35.5666
RightArm  13.6432 -9.30802 35.4525
RightForeArm  118.549 79.5123 111.584
RightHand  -1.93 5.59009 -20.5725
LeftUpLeg  -19.612 1.8374 -0.0613553
LeftLeg  -3.85371 24.337 -7.48932
LeftFoot  -4.60727 0.0532857 -0.640239
LeftToes  1.06246e-005 4.65856e-005 -8.18502e-006
1241
root  13.7043 38.4675 23.6903 -36.302 -83.4868 33.2536
RightUpLeg  20.495 -11.956 -9.27391
RightLeg  18.9813 14.2891 5.60129
RightFoot  -17.6151 -0.0946116 0.402169
RightToes  0.00048216 0.542163 -0.142577
Spine  7.92074 2.3275 5.78198
Spine1  8.85284 4.58626 -5.7801
HEad  -10.9992 -5.65929 2.3702
LeftShoulder1  7.66538 -11.802 -43.5723
LeftArm  -10.5563 36.5102 -31.0917
LeftForeArm  33.0154 -13.4146 -4.1779
LeftHand  -0.25398 0.0180481 5.50724
RightShoulder  5.04303 8.57817 35.764
RightArm  14.0223 -11.4511 34.6318
RightForeArm  118.426 79.6343 110.497
RightHand  -1.7743 5.09284 -19.8333
LeftUpLeg  -21.2166 2.54261 -2.28713
LeftLeg  3.45732 23.7046 -4.52719
LeftFoot  -0.859284 -0.383759 4.1235
LeftToes  1.06246e-005 4.65856e-005 -8.18502e-006
1242
root  11.729 38.2086 24.2037 -43.78 -82.7758 40.3033
RightUpLeg  21.3269 -10.5573 -11.3918
RightLeg  23.7471 14.2671 6.51846
RightFoot  -14.6282 0.0354453 5.33391
RightToes  0.00048216 0.542163 -0.142577
Spine  7.69961 2.92434 2.71977
Spine1  8.47133 4.50354 -4.12916
HEad  -9.70349 -6.70214 3.5271
LeftShoulder1  7.64536 -11.776 -43.5302
LeftArm  -10.8413 36.1536 -30.7664
LeftForeArm  32.6096 -13.2039 -4.1428
LeftHand  -0.25398 0.0180481 5.50724
RightShoulder  5.1563 8.73699 36.1392
RightArm  13.9726 -14.5261 34.0924
RightForeArm  116.767 79.8353 107.911
RightHand  -1.77781 5.26891 -19.5566
LeftUpLeg  -22.6884 9.39381 -7.21723
LeftLeg  11.4094 12.8588 -0.770967
LeftFoot  4.51283 -0.921516 6.50527
LeftToes  1.06246e-005 4.65856e-005 -8.18502e-006
1243
root  9.8483 38.1181 24.6907 -51.4258 -81.4078 47.5132
RightUpLeg  19.0842 -7.75313 -12.9766
RightLeg  32.0724 11.746 7.57022
RightFoot  -6.02728 -0.510229 9.87269
RightToes  0.00048216 0.542163 -0.142577
Spine  7.9247 3.10702 -0.526386
Spine1  7.81446 4.18063 -3.07805
HEad  -8.59195 -7.58758 5.01814
LeftShoulder1  7.63528 -11.776 -43.4693
LeftArm  -10.8561 35.0196 -30.1568
LeftForeArm  32.196 -13.1873 -4.13126
LeftHand  -0.25398 0.0180481 5.50724
RightShoulder  5.23865 8.80356 36.5696
RightArm  13.4174 -17.3641 34.6187
RightForeArm  112.144 80.1289 102.43
RightHand  -1.8643 5.75134 -19.6288
LeftUpLeg  -23.2501 16.3668 -12.2597
LeftLeg  17.0353 3.28581 1.33751
LeftFoot  5.92988 -0.994352 6.29282
LeftToes  1.06246e-005 4.65856e-005 -8.18502e-006
1244
root  8.20771 38.1549 25.1724 -58.1777 -79.9878 54.1054
RightUpLeg  13.2611 -4.62529 -13.9615
RightLeg  42.9947 7.72989 7.33053
RightFoot  7.1888 -1.83507 11.6463
RightToes  0.00048216 0.542163 -0.142577
Spine  8.49221 2.82555 -2.79667
Spine1  7.48871 3.8056 -3.5725
HEad  -7.76129 -8.13914 5.90148
LeftShoulder1  7.64616 -11.787 -43.5016
LeftArm  -10.8035 32.9087 -29.4288
LeftForeArm  31.6452 -13.749 -4.05605
LeftHand  -0.25398 0.0180481 5.50724
RightShoulder  5.23396 8.76062 36.6768
RightArm  12.5668 -19.1398 36.308
RightForeArm  106.305 80.2965 96.5409
RightHand  -1.89806 5.83655 -19.8283
LeftUpLeg  -22.0456 16.5864 -13.9379
LeftLeg  20.703 3.84163 1.99338
LeftFoot  2.77892 -0.783837 6.21612
LeftToes  1.06246e-005 4.65856e-005 -8.18502e-006
1245
root  6.78738 38.2188 25.623 -65.3625 -78.9893 61.2358
RightUpLeg  5.68006 -1.35293 -14.5565
RightLeg  53.7394 3.86538 5.24256
RightFoot  16.5791 -2.59085 10.8943
RightToes  0.00048216 0.542163 -0.142577
Spine  9.37222 2.49182 -4.60285
Spine1  7.46045 3.32358 -4.41929
HEad  -6.92556 -8.45005 5.54272
LeftShoulder1  7.6878 -11.7919 -43.7378
LeftArm  -10.592 30.3331 -28.9267
LeftForeArm  30.8833 -15.4856 -3.8383
LeftHand  -0.25398 0.0180481 5.50724
RightShoulder  5.16733 8.69841 36.3572
RightArm  12.0788 -19.716 38.2362
RightForeArm  102.465 80.2924 93.6737
RightHand  -1.91866 5.70569 -20.2563
LeftUpLeg  -20.1261 16.8664 -15.3437
LeftLeg  22.6096 4.77695 2.5194
LeftFoot  -1.39144 -0.591362 6.87517
LeftToes  1.06246e-005 4.65856e-005 -8.18502e-006
1246
root  5.35487 38.4842 26.0623 -70.3282 -78.7628 65.7854
RightUpLeg  -1.36467 1.26708 -14.4071
RightLeg  61.7978 1.15853 1.85355
RightFoot  17.5576 -2.04893 8.35675
RightToes  0.00048216 0.542163 -0.142577
Spine  10.4128 2.02024 -5.74367
Spine1  7.16322 2.54589 -4.15464
HEad  -6.13368 -8.51784 4.65883
LeftShoulder1  7.72671 -11.7825 -43.9986
LeftArm  -10.0366 27.9419 -28.7282
LeftForeArm  30.0767 -18.7042 -3.49163
LeftHand  -0.25398 0.0180481 5.50724
RightShoulder  5.1112 8.69116 35.933
RightArm  12.2665 -19.4887 39.4808
RightForeArm  101.5 80.254 93.5484
RightHand  -2.01547 5.94723 -20.8093
LeftUpLeg  -16.8076 17.7979 -15.5488
LeftLeg  22.2606 4.40258 2.33363
LeftFoot  -3.90064 -0.415762 6.72779
LeftToes  1.06246e-005 4.65856e-005 -8.18502e-006
1247
root  3.88293 38.9545 26.5028 -71.5674 -79.3205 66.3263
RightUpLeg  -7.16596 2.89143 -13.2529
RightLeg  65.5277 -0.346815 -1.41889
RightFoot  13.5083 -1.07198 5.2809
RightToes  0.00048216 0.542163 -0.142577
Spine  11.4204 1.25915 -5.74494
Spine1  6.70934 1.55259 -3.26029
HEad  -5.37004 -8.50219 4.36916
LeftShoulder1  7.73358 -11.7781 -44.0529
LeftArm  -9.90827 25.8981 -28.4959
LeftForeArm  30.3267 -23.1737 -3.45466
LeftHand  -0.25398 0.0180481 5.50724
RightShoulder  5.09264 8.7342 35.6405
RightArm  12.721 -19.0718 39.9527
RightForeArm  102.414 80.2537 94.2941
RightHand  -2.09686 6.31257 -20.9761
LeftUpLeg  -12.1441 18.7011 -14.1855
LeftLeg  20.0572 3.93278 1.57537
LeftFoot  -5.13932 -0.257837 5.3121
LeftToes  1.06246e-005 4.65856e-005 -8.18502e-006
1248
root  2.44126 39.3504 26.9324 -69.582 -80.2763 63.7206
RightUpLeg  -12.0267 3.77305 -11.5729
RightLeg  65.1502 -1.09387 -3.20585
RightFoot  9.42204 -0.542327 3.33796
RightToes  0.00048216 0.542163 -0.142577
Spine  12.1742 0.400898 -4.88578
Spine1  6.51118 0.553589 -2.72147
HEad  -4.27406 -8.78639 4.48529
LeftShoulder1  7.72291 -11.7829 -43.9745
LeftArm  -11.2197 24.0882 -27.9377
LeftForeArm  32.633 -28.5075 -4.38006
LeftHand  -0.25398 0.0180481 5.50724
RightShoulder  5.05579 8.75557 35.2745
RightArm  13.0099 -18.9714 40.0004
RightForeArm  104.602 80.2377 96.2022
RightHand  -2.05813 6.25324 -20.7025
LeftUpLeg  -7.48714 17.1822 -11.8475
LeftLeg  18.0367 5.79244 0.571242
LeftFoot  -6.72102 -0.129082 4.23379
LeftToes  1.06246e-005 4.65856e-005 -8.18502e-006
1249
root  0.985276 39.6433 27.3588 -64.3542 -81.2091 57.9779
RightUpLeg  -15.8846 3.90222 -9.76388
RightLeg  61.3437 -1.7113 -3.91877
RightFoot  7.08699 -0.289687 2.08628
RightToes  0.00048216 0.542163 -0.142577
Spine  12.6994 -0.421449 -3.81734
Spine1  6.37914 -0.426771 -2.10684
HEad  -2.6636 -9.777 3.89699
LeftShoulder1  7.71059 -11.7677 -43.9467
LeftArm  -12.5677 22.5292 -27.2616
LeftForeArm  35.0765 -34.4739 -5.66969
LeftHand  -0.25398 0.0180481 5.50724
RightShoulder  4.93721 8.6695 34.6018
RightArm  13.1427 -19.3406 39.7678
RightForeArm  107.992 80.1064 100.284
RightHand  -2.02848 6.1424 -20.6025
LeftUpLeg  -3.06333 13.2079 -9.67784
LeftLeg  15.9992 9.32597 -0.647196
LeftFoot  -8.34095 -0.0618759 4.29955
LeftToes  1.06246e-005 4.65856e-005 -8.18502e-006
1250
root  -0.485905 39.8671 27.7657 -57.6964 -81.7494 50.852
RightUpLeg  -18.5686 3.14132 -8.20617
RightLeg  54.5498 -2.66272 -4.41206
RightFoot  4.84795 -0.118212 1.06609
RightToes  0.00048216 0.542163 -0.142577
Spine  13.3168 -1.0482 -3.30299
Spine1  5.90644 -1.36504 -0.910629
HEad  -1.03627 -11.3396 2.72902
LeftShoulder1  7.66907 -11.718 -43.8474
LeftArm  -13.8322 21.2472 -26.7483
LeftForeArm  37.2828 -40.5449 -7.19069
LeftHand  -0.25398 0.0180481 5.50724
RightShoulder  4.75945 8.46029 33.8345
RightArm  13.2139 -19.9831 39.2106
RightForeArm  111.882 79.8552 105.353
RightHand  -2.16041 6.62702 -21.0452
LeftUpLeg  1.15735 8.65388 -8.35926
LeftLeg  13.5929 12.9825 -1.89368
LeftFoot  -9.4533 -0.0159063 4.38208
LeftToes  1.06246e-005 4.65856e-005 -8.18502e-006
